<svg xmlns="http://www.w3.org/2000/svg" version="1.1" xmlns:xlink="http://www.w3.org/1999/xlink" xmlns:svgjs="http://svgjs.dev/svgjs" viewBox="0 0 800 800"><defs><linearGradient x1="50%" y1="0%" x2="50%" y2="100%" id="ssscribble-grad"><stop stop-color="hsl(206, 75%, 49%)" stop-opacity="1" offset="0%"></stop><stop stop-color="hsl(331, 90%, 56%)" stop-opacity="1" offset="100%"></stop></linearGradient></defs><g fill="none" stroke-width="1.5" stroke="#d9d9d9" stroke-linecap="round"><path d="M903.77 179.56C740.15 212.42 649.46 241.38 671.33 269.18 790.15 300.61 935.34 337.78 1034.88 386.81 1051.45 447.3 975.52 526.38 843.49 624.11 695.02 726.72 577.39 832.84 512.09 924.63 501.93 982.07 534.07 993.9 584.42 950.47 647.53 867.92 696.32 761.33 723.08 666.43 739.1 625.86 734.1 656.3 714.49 758.72 690.14 901.17 659.59 1033.61 626.73 1100.57 593.87 1073.96 560.25 964.79 522.63 820.82 480.27 693.77 425.49 626.22 352.52 631.12 268.82 701.5 165.91 802.23 52.15 896.34 -48.84 964.93 -128.15 983.24 -161.06 953.27 -138.83 883.72 -60.16 789.79 54.08 690.13 151.9 587.67 198.35 498.8 157.7 426.95 34.07 364.24 -129.81 315.35 -261.32 275.65 -295.87 239.49 -211.84 206.14 -48.22 173.28 99.94 140.42 153.89 109.61 94.6 83.79 -44.69 61.52 -183.94 50.62 -256.69 56.38 -237.25 71.28 -132.46 106.03 11.77 157.84 153.82 206.86 250.53 253.62 289.36 280.1 272.7 267.01 221.51 209.75 161.72 106.95 97.58 -21.36 54.81 -151.56 37.24 -246.04 33.5 -275.04 49.57 -226.21 77.15 -111.86 109.65 19.42 144.5 121.95 177.36 148.59 210.22 81.65 239.54 -44.12 269.01 -173.89 303.4 -263.65 347.11 -275.4 407.8 -210.76 482.32 -91.77 579.21 44.28 693.99 161.04 804.42 238.7 902.79 265.84 962.52 251.48 966.76 202.77 909.01 143.83 801.18 91.87 691.16 44.77 615.83 19.81 620.48 16.26 717.32 24.17 875.27 46.78 1027.26 77.32 1099.22 111.49 1051.94 146.7 903.77 179.56Q903.77 179.56 903.77 179.56" opacity="0.19"></path><path d="M869.77 194.49C716.28 225 621.45 261.14 622.05 304.1 713.64 349.61 846.05 406.24 959.79 475.89 1017.65 550.34 994.42 637.21 905.46 730.84 775.97 816.08 644.66 890.25 540.13 938.06 472.22 950.28 447.2 920.61 453.23 849.87 485.42 761.03 523.58 668.51 554.76 602.38 587.11 592.23 603.27 644.85 602.41 753.73 599.42 888.15 582.16 1007.11 551.65 1066.57 521.13 1044.96 478.81 949.85 424.25 818.32 367.57 691.52 295.9 607.25 210.68 582.91 126.61 619.86 38.2 696.88 -41.01 785.56 -94.07 870.1 -112.85 922.6 -84.94 935.92 -20.4 913.99 74.72 860.1 172.44 788.04 229.63 701.88 225.49 616.26 145.26 539.18 9.16 463.74 -140.61 400.63 -243.98 349.82 -256.36 300.95 -167.71 261.47 -14.22 230.95 125.85 200.44 187.85 180.33 151.28 171.66 35.22 164.91 -99.93 172.51 -196.04 195.07 -223 219.27 -168.4 254.64 -57.73 293.78 79.53 318.81 203.5 328.9 290.54 310.85 334.45 257.55 336.38 168.88 312.31 52.57 266.72 -67.88 222.16 -172.27 189.77 -231.59 159.95 -229.64 148.22 -162.75 153.23 -47.73 161.19 72.01 181.36 160.95 211.87 182.59 242.39 123.14 281.79 10.38 331.38 -112.26 383.92 -209.37 451.16 -244.65 533.86 -212.14 619.12 -123.66 713.94 -3.77 806.55 116.83 877.66 219.35 919.53 285.21 915.62 312.99 868.57 305.18 780.78 274.82 675.28 236.61 596.38 190.02 569.15 153.4 618.47 131.83 736.95 115.04 889.48 113.92 1017.31 125.95 1065.66 140.54 1009.85 163.98 869.77 194.49Q869.77 194.49 869.77 194.49" opacity="0.14"></path><path d="M835.77 300.83C692.77 329 595.96 368.31 578.12 418.12 642.16 468.68 754.92 530.48 870.38 601.5 956.22 670.7 979.84 743.47 940.7 811.63 851.07 864.12 735.43 897.03 620.65 900.36 518.19 875.13 445.39 818.29 402.45 737.39 386.2 622.08 418.94 604.63 425.65 750.22 427.26 874.69 414.76 980.23 386.59 1032.57 358.42 1015.5 315.92 933.95 261.2 816.08 207.38 693.7 144.12 598.82 77.6 550.33 20.46 554.52 -27.31 601.56 -53.77 672.08 -54.25 754.88 -21.88 824.12 43.66 867.92 121.51 887.55 203.76 876.59 264.06 842.33 273.88 789.77 224.99 727.31 118.51 663.89 -17.59 596 -146.37 534.72 -221.29 483.54 -214.32 432.34 -123.21 391.99 19.77 363.82 151.27 335.65 219.18 321 203.27 319.07 112.36 317.13 -10.45 327.17 -117.67 346.25 -180.44 360.86 -174.97 376.93 -109.69 386.09 -1.66 376.95 120.07 347.47 229.88 290.94 318.21 210.23 372.43 107.6 396.76 -4.52 387.37 -140.52 329.1 -134.28 319.28 16.64 317.22 123.64 329.83 199.5 358 216.59 386.16 164.27 428.55 64.45 483.74 -49.16 538.9 -149.14 605.7 -202.6 679.3 -199.24 745.99 -143.72 808.02 -49.31 853 60.74 872.08 170.97 858.29 261.22 806.88 323.36 733.99 356.95 645.64 364.48 566.94 355.4 530.99 330.65 550.78 304.27 634.2 283.87 762.07 261.67 900.91 251.11 1002.69 253.66 1029.47 256.98 967.27 272.67 835.77 300.83Q835.77 300.83 835.77 300.83" opacity="0.70"></path><path d="M801.77 451.29C669.62 477.11 572.91 513.81 539.8 559.55 577.41 604.45 665.88 656.29 772.07 710.88 870.99 759.57 929.44 803.64 937.03 835.61 896.9 851.31 818.59 845.68 721.85 814.59 616.34 766.48 521.4 699.77 445.25 625.01 384.98 563.55 344.71 522.96 318.73 518.4 303.69 558.37 293.23 638.98 281.17 747.64 271.72 860.65 255.3 952.98 229.49 998.57 203.67 985.59 169.66 916.95 130.42 813.55 93.79 699.19 57.28 599.77 27.57 533.45 8.81 508.71 6.56 523.98 27.04 568.05 63.39 634.31 121.26 702.31 192.93 759.24 255.83 805.42 303.53 828.69 316.78 830.29 282.31 816 200.7 786.49 82.85 748.67 -42.25 703.59 -145.42 657.99 -193 616.67 -169.85 573.95 -78.37 538.6 53.77 512.78 212.05 479.42 132.73 457.85 -25.97 457.5 -111.09 450.58 -146.51 437.57 -128.71 412.08 -64.94 370.7 29.41 310.36 133.18 230.34 237.31 139.57 323.9 40.97 387.98 -52.18 432.96 -123.14 458.59 -161.57 472.39 -155.76 475.67 -108.39 477.66 -23.67 484.44 80.72 489.08 174.16 503.17 237.58 528.99 250.58 554.81 205 591.13 117.92 635.19 14.87 677.1 -83.82 722.09 -149.75 763.55 -170.81 794.49 -147.33 811.38 -83.58 806.2 4.75 781.91 106.4 732.39 203.72 662.1 285.67 592.17 350.6 528.42 393.3 491.54 417.4 500.63 425.22 559.19 423.67 663.24 419.73 788.82 409.88 907.63 405 982.94 408.8 990.66 411.75 924.21 425.47 801.77 451.29Q801.77 451.29 801.77 451.29" opacity="0.97"></path><path d="M767.72 578.93C646.73 602.4 552.14 631.76 507.22 664.98 520.82 696.59 582.82 728.83 671.22 757.47 768.85 779.46 846.55 791.71 889.75 789.46 896.7 775.36 865.01 743.59 805.54 694.79 725.17 640.88 638.34 580.74 555.96 524.8 476.32 489.21 409.96 478.05 357.39 499.94 311.79 556.64 276.3 642.62 247.5 745.43 221.15 845.85 197.01 925.34 173.54 964.58 150.07 955.23 128.37 898.71 110.46 810.15 94.99 706.73 87.78 608.44 92.7 531.3 104.6 483.86 132.3 469.78 175.77 484.3 221.97 524.4 275.1 576.31 324.71 629.05 353.41 682.85 357.28 724.08 325.88 749.78 258.25 765.98 159.49 767.01 44.65 756.31 -60.94 738.99 -136.29 715.36 -158.96 689.4 -123.09 661.63 -33.26 635.04 87.72 611.57 200.66 588.1 274.05 568.85 291.51 552.36 250.77 534.05 169.5 514.98 73.41 491.62 -19.75 461.65 -82.81 421.97 -105.69 369.59 -89.56 307.71 -37.4 232.79 37.15 148.22 127.21 64.72 217.11 -15.02 297.43 -79.56 370.73 -118.51 428.58 -125.49 472.45 -95.26 508.16 -35.32 535.41 49.6 558.45 143.96 578.97 223.47 600.04 275.23 623.51 284.58 646.98 245.34 671.74 170.61 695.49 79.24 716.72 -14.5 732.18 -87.12 737.15 -126.61 733.95 -131.3 714.77 -99.09 677.65 -39.06 633.5 41.31 577.31 129.28 518.01 213.95 474.2 293.52 449.86 358.98 458.16 409.26 505.47 447.69 589.57 474.09 699.94 492.77 813.24 504.81 907.87 515.28 957.69 527.93 949.31 538.97 880.7 555.45 767.77 578.92Q767.72 578.93 767.72 578.93" opacity="0.24"></path><path d="M734.3 626.85C624.7 647.98 533.93 668.23 480.5 686.29 473.3 702.85 508.77 714.45 573.79 718.41 658.12 717.6 739.06 705.79 802.07 681.47 844.08 651.82 855.37 611.03 839.08 562.53 799.91 518.14 744.24 476.79 681.35 446.92 611.29 438.77 544.49 454.01 485.44 496.23 427.47 563.05 379.04 648.95 340.41 742.86 302.87 830 273.48 897.18 252.36 930.47 231.23 924.26 219.37 878.96 217.07 805.18 215.86 714.87 225.87 622.65 247.22 541.7 269.66 479.32 301.68 441.77 339.18 428.66 369.51 439.2 394.85 466.04 406.34 501.33 394.94 545.37 358.6 586.44 294.6 619.71 209.59 650.63 109.7 670.27 9.89 678.74 -70.61 683.4 -118.1 679.02 -119.05 667.55 -73.78 654.72 12.7 637.24 122.3 616.12 225.2 595 298.02 571.22 327.19 544.22 308.52 515.85 251.67 481.8 173.45 440.54 85.34 395.45 10.16 341.04 -39.98 277.56 -63.76 211.73 -55.51 140.33 -21.31 68.6 33.95 5.62 101.21 -46.27 171.15 -78.8 244.85 -87.7 311.85 -69.11 369.04 -22.22 423.38 43.24 467.86 123.42 503.28 205.58 537.22 271.22 564.57 312.25 585.69 318.48 606.82 285.2 620.72 222.31 626.62 143.32 631.04 57.56 624.99 -16.31 607.26 -67.65 586.68 -94.4 554.46 -90.7 513.32 -60.55 475.94 -8.69 439.01 57.69 411.43 129.78 404.91 205.96 421.71 277.08 467.49 339.29 539.64 396.18 633.77 442.77 737.36 480.19 831.06 512.84 899.94 539.67 926.76 562.95 905.74 584.73 837.2 605.73 734.3 626.85Q734.3 626.85 734.3 626.85" opacity="0.49"></path><path d="M699.71 574C601.82 592.78 516.92 605.44 459.04 611.68 435.84 617.09 447.59 614.68 487.48 603.78 550.45 591.02 620.82 569.26 686.66 539.46 745.64 510.14 785.59 476.46 804.61 442.67 806.36 417.91 789.74 401.4 760.21 398.78 719.97 415.02 674.73 450.55 629.72 505.67 581.55 576.01 538.04 657.04 501.81 739.72 465.24 813.31 436.92 868.83 418.14 896.59 399.36 893.03 391.02 857.9 392.17 798.41 392.99 722.55 402.34 640.39 417.97 562.04 430.43 492.99 444.76 440.07 456.06 405.37 456.64 388.98 446.31 388.67 419.94 399.91 376.31 422.74 314.1 449.29 235.56 474.81 150.17 503.28 62.96 525.92 -13.76 540.75 -67.42 554.93 -89.85 560.67 -73.89 557.87 -23.26 554.54 57.82 543.51 155.71 524.74 248.4 505.96 319.11 480.32 357.1 448.24 357.72 415.62 325.16 375.72 269.33 329 196.54 281.62 123.77 228.07 62.11 170.66 13.05 116.19 -13.44 62.69 -17.79 15.24 -3.79 -20.6 26.92 -42.55 67.94 -45.72 118.22 -30.57 170.56 5.5 220.08 60.79 271.49 125.38 316.59 196.85 353.42 265.47 390.18 317.71 418.46 349.03 437.24 352.59 456.02 324.83 464.42 273.11 463.07 206.77 461.66 131.34 450.72 61 431.85 4.42 404.17 -46.28 358.14 -10.75 366.87 58 395.82 116.4 444.58 177.03 513.18 235.3 594.39 294.04 684 346.73 770.56 392.02 840.15 435.46 883.41 472.03 890.06 502.03 859.33 531.21 792.44 555.21 699.76 573.99Q699.71 574 699.71 574" opacity="0.32"></path><path d="M665.76 443.62C510.87 442.81 751.02 389.89 711.71 525.09 658.27 663.36 606.49 795.64 573.63 862.58 540.77 835.94 529.94 726.64 526.43 588.47 505.85 460.03 460.46 376.76 368.99 341.98 243.8 348.53 94.49 372.59 -22.6 389.36 -53.77 412.09 26.14 410.59 189.76 377.73 337.93 344.87 395.42 283.76 353.39 204.08 238.35 130.36 123.02 55.02 54.61 5.39 29.7 -2.89 57.86 45.52 109.26 149.88 176.09 263.96 234.19 359.94 267.05 386.58 299.92 319.64 304.43 200.68 294.54 86.5 300.09 2.04 323.22 -16.41 391.2 20.06 502.67 95.21 652.86 186 791.98 266.57 858.1 349.49 813.93 410.76 665.76 443.62Q665.76 443.62 665.76 443.62" opacity="0.12"></path><path d="M631.72 293.89C439.61 324.39 447.2 308.74 564.77 318.63 638.54 361.33 676.9 440.01 682.45 551.06 676.35 670.73 654.23 776.24 626.06 828.58 597.9 811.51 566.35 729.59 523.64 617.09 469.28 497.79 386.96 400.01 276.27 335.39 161.86 298.91 51.83 284.75 -12.3 277.2 -6.09 278.23 80.74 268.77 223.72 240.61 355.24 212.44 425.46 168.23 421.25 118.38 351.43 77.12 258.53 47.33 181 46.89 117.03 74.59 92.64 142.48 98.98 241.13 118.04 332.98 147.52 403.5 175.68 420.59 203.85 368.26 228.04 274.17 257.79 175.14 300.25 84.72 368.59 35.92 469.47 30.13 583.92 54.74 706.7 103.53 797.18 156.64 822.05 216.71 763.27 265.72 631.77 293.88Q631.72 293.89 631.72 293.89" opacity="0.74"></path><path d="M597.72 191.31C476.74 214.78 381.47 229.6 332.34 241.3 332.45 259.64 368.64 286.9 417.68 331.76 479.71 394.32 526.84 479.79 550.09 579.62 570 675.69 567.86 755.35 544.39 794.58 520.92 785.23 478.34 728.1 417.75 643.64 353.82 544.99 270.06 451.44 177.27 376.17 97.46 314.42 36.38 271.52 19.06 241.88 50.99 218.86 136.74 197.9 257.72 174.43 408.01 139.07 416.45 101.63 330.12 135.75 264.81 180.26 220.17 248.9 201.25 330.35 187.61 397.6 193.96 445.21 217.43 454.59 240.89 415.36 279.26 345.23 333.57 266.35 393.16 183.72 474.43 123.14 570.51 91.35 660.21 77.25 739.92 86.62 782.7 108.95 775.85 137.93 710.69 167.83 597.77 191.3Q597.72 191.31 597.72 191.31" opacity="0.37"></path><path d="M563.98 181.51C466.08 200.29 380.96 223.51 322.24 252.52 292.24 285.33 288.86 329.96 301.7 387.57 330.36 451.72 358.19 527.59 374.89 606.5 393.59 676.89 395.56 732.76 376.79 760.53 358.01 756.99 320.25 721.09 269.01 664.07 219.77 592.48 162.63 517.38 109.36 449.55 71.91 384.52 55.38 331.44 71.61 291.72 116.57 255.04 194.08 227.32 291.98 208.54 384.63 189.76 455.86 181.71 496.4 185.84 505.58 193.03 490.4 216.8 463.72 257.22 424.04 300.44 389.97 355.62 370.56 413.45 350.55 456.7 348.46 484.99 367.24 488.53 386.01 460.76 423.89 412.5 476.44 355.88 528.39 290.73 591.76 234.78 656.06 195.24 724.89 154.58 688.44 156.45 563.98 181.51Q563.98 181.51 563.98 181.51" opacity="0.10"></path><path d="M529.72 268.98C386.74 297.15 285.71 368.01 245.15 468.1 245.78 568.73 251.49 674.24 223.32 726.58 195.15 709.51 138.44 626.76 100.9 533.6 104.54 432.15 182.74 356.07 325.72 327.9 457.25 299.73 531.88 324.82 548.94 389.35 525.89 445.59 508.67 505.51 536.84 522.58 565 470.24 633.23 387.56 693.19 323.85 713.04 260.68 661.25 240.81 529.72 268.98Q529.72 268.98 529.72 268.98" opacity="0.90"></path><path d="M495.77 414.68C313.13 452.24 211.97 609.62 174.42 692.57 136.86 654.67 177.13 516.83 359.77 479.27 522.51 441.72 587.42 518.67 624.98 556.57 662.53 473.62 658.51 377.13 495.77 414.68Q495.77 414.68 495.77 414.68" opacity="0.84"></path></g></svg>